<?xml version="1.0" encoding="UTF-8"?>
<svg id="Calque_2" data-name="Calque 2" xmlns="http://www.w3.org/2000/svg" viewBox="0 0 103.75 104.98">
  <defs>
    <style>
      .cls-1 {
        fill: #211e1e;
      }

      .cls-1, .cls-2, .cls-3, .cls-4 {
        stroke-miterlimit: 10;
      }

      .cls-1, .cls-2, .cls-4 {
        stroke: #1d1d1b;
      }

      .cls-2 {
        fill: #a09e9e;
        stroke-width: 3px;
      }

      .cls-3 {
        fill: #f9c8b9;
        stroke: #1d1e1c;
      }

      .cls-4 {
        fill: #d3f99d;
      }
    </style>
  </defs>
  <g id="Calque_1-2" data-name="Calque 1">
    <g>
      <path class="cls-3" d="m94.2,28.91c-3.09-6.04-6.6-12.7-13.97-18.81-3.5-2.9-9.36-7.63-18.27-9.14-8.84-1.5-15.84.99-20.42,2.69-11.47,4.24-18.34,11.53-22.57,16.12C12.08,27.23-1.16,41.6.67,60.62c.37,3.82,1.09,11.32,6.45,17.74,4.09,4.9,9.69,7.49,18.17,9.42-2.39-1.18-3.92-3.74-3.66-6.55l2.96-31.63c.34-3.64,3.76-8.65,7.4-8.31l45.35,4.68c5.26,1.64,2.1,5.09,1.76,8.73l-2.96,31.63c.75,3.2.39,5.01-.6,5.94,6.33-.73,12.49-2.44,17.58-6.93,7.55-6.66,8.96-16.13,9.67-20.96,2.15-14.49-3.73-25.97-8.6-35.47Z"/>
      <path class="cls-4" d="m27.46,88.43c-.57-.05-1.12-.18-1.63-.36.03.33.06.67.1,1.04.06.64.17,1.67.54,2.96.26.9.75,2.55,2.02,4.3,1.51,2.08,3.29,3.15,3.9,3.49,1.56.88,3.77,2.12,6.32,1.48,3.16-.8,4.64-3.97,5.11-4.97.15-.31.76-1.7.94-3.63,0,0,.07-.77.03-1.7,1.21.17,2.44.34,3.72.51.58.08,1.13.16,1.67.23-.02.18-.04.36-.04.55-.03,1.54.66,2.72,1.75,4.57.58.98,1.34,2.29,2.69,3.63,1.55,1.54,4.41,4.38,8.06,3.9,3.38-.45,5.33-3.48,5.51-3.76.74-1.19,1.08-2.54,1.75-5.24.28-1.12.42-1.69.4-2.15,0-.19-.02-.38-.05-.56-.48-.12-.95-.26-1.42-.42l-41.34-3.87Z"/>
      <path class="cls-1" d="m25.29,87.78c.22.11.45.21.68.29,0-.05,0-.09-.01-.14-.22-.05-.45-.1-.67-.15Z"/>
      <path class="cls-4" d="m76.14,86.33l2.96-31.63c.34-3.64,3.5-7.09-1.76-8.73l-45.35-4.68c-3.64-.34-7.06,4.67-7.4,8.31l-2.96,31.63c-.26,2.81,1.27,5.37,3.66,6.55.22.05.44.1.67.15,0,.05,0,.09.01.14.51.19,1.06.31,1.63.36l41.34,3.87c.47.15.95.29,1.42.42,0-.01,0-.02,0-.04,1.73-.09,3.47-.21,5.19-.41.98-.93,1.35-2.74.6-5.94Z"/>
      <path class="cls-3" d="m18.07,49.81c6.19-2.63,12.77.35,14.51,5.24,1.65,4.64-1.42,9.92-5.64,12.09-4.55,2.34-10.48,1.1-14.11-3.22"/>
      <path class="cls-3" d="m83.9,74.18c-5.96,3.1-12.76.65-14.88-4.09-2.01-4.49.64-10,4.68-12.5,4.36-2.69,10.37-1.91,14.32,2.12"/>
      <circle class="cls-1" cx="40.45" cy="21.99" r="3.22"/>
      <path class="cls-2" d="m33.45,14.9c4.87,2.37,9.74,4.75,14.61,7.12"/>
      <circle class="cls-1" cx="68.09" cy="24.28" r="3.22"/>
      <path class="cls-2" d="m76.25,18.58c-5.22,1.45-10.44,2.9-15.65,4.36"/>
    </g>
  </g>
</svg>