<svg xmlns="http://www.w3.org/2000/svg" viewBox="0 0 103.75 130.45"><defs><style>.cls-1{fill:#f9c8b9;stroke:#1d1e1c;}.cls-1,.cls-2,.cls-3,.cls-4,.cls-5,.cls-6,.cls-7{stroke-miterlimit:10;}.cls-2{fill:#d3f99d;}.cls-2,.cls-3,.cls-4,.cls-5,.cls-6,.cls-7{stroke:#1d1d1b;}.cls-3{fill:#211e1e;}.cls-4{fill:#a09e9e;stroke-width:3px;}.cls-5{fill:#c99d66;}.cls-6{fill:none;}.cls-7{fill:#7e4e24;}</style></defs><g id="Calque_2" data-name="Calque 2"><g id="Calque_18" data-name="Calque 18"><g id="Calque_1-2" data-name="Calque 1-2"><path class="cls-1" d="M94.2,39.05c-3.09-6-6.6-12.7-14-18.81-3.5-2.9-9.36-7.63-18.27-9.14s-15.84,1-20.42,2.69C30.07,18,23.2,25.32,19,29.91,12.08,37.37-1.16,51.74.67,70.76,1,74.58,1.76,82.08,7.12,88.5c4.09,4.9,9.69,7.49,18.17,9.42a6.62,6.62,0,0,1-3.66-6.55l3-31.63c.34-3.64,3.76-8.65,7.4-8.31l45.35,4.68c5.26,1.64,2.1,5.09,1.76,8.73l-3,31.63c.75,3.2.39,5-.6,5.94,6.33-.73,12.49-2.44,17.58-6.93,7.55-6.66,9-16.13,9.67-21,2.15-14.49-3.73-26-8.6-35.47Z"/><path class="cls-2" d="M27.46,98.57a6.67,6.67,0,0,1-1.63-.36c0,.33.06.67.1,1a15.58,15.58,0,0,0,.54,3,13.23,13.23,0,0,0,2,4.3,12.36,12.36,0,0,0,3.9,3.49c1.56.88,3.77,2.12,6.32,1.48,3.16-.8,4.64-4,5.11-5a11.28,11.28,0,0,0,.94-3.63,14.23,14.23,0,0,0,0-1.7l3.72.51,1.67.23a4.91,4.91,0,0,0,0,.55c0,1.54.66,2.72,1.75,4.57a16.65,16.65,0,0,0,2.69,3.63c1.55,1.54,4.41,4.38,8.06,3.9a8.45,8.45,0,0,0,5.51-3.76c.74-1.19,1.08-2.54,1.75-5.24a8.65,8.65,0,0,0,.4-2.15,3.43,3.43,0,0,0,0-.56c-.48-.12-1-.26-1.42-.42L27.49,98.57Z"/><path class="cls-3" d="M25.29,97.92a5.79,5.79,0,0,0,.68.29.66.66,0,0,0,0-.14Z"/><path class="cls-2" d="M76.14,96.47l3-31.63c.34-3.64,3.5-7.09-1.76-8.73L32,51.43c-3.64-.34-7.06,4.67-7.4,8.31l-3,31.63a6.62,6.62,0,0,0,3.66,6.55l.67.15a.66.66,0,0,0,0,.14,6.23,6.23,0,0,0,1.63.36l41.34,3.87c.47.15,1,.29,1.42.42v0c1.73-.09,3.47-.21,5.19-.41,1-.93,1.35-2.74.6-5.94Z"/><circle class="cls-3" cx="40.45" cy="32.13" r="3.22"/><path class="cls-4" d="M33.45,25l14.61,7.12"/><circle class="cls-3" cx="68.09" cy="34.42" r="3.22"/><path class="cls-4" d="M76.25,28.72,60.6,33.08"/><path class="cls-1" d="M18.07,60c6.19-2.63,12.77.35,14.51,5.24,1.65,4.64-1.42,9.92-5.64,12.09a11.67,11.67,0,0,1-14.11-3.22"/><polygon class="cls-5" points="67.21 0.7 71.3 7.85 71.3 15.68 67.89 25.21 68.23 43.59 76.23 54.66 76.91 58.23 75.04 58.23 74.87 68.78 76.91 69.47 76.06 72.19 68.4 82.91 67.21 105.21 72.06 113.72 70.11 127.51 66.19 129.52 68.23 120.7 69.42 114.23 65 105.38 64.32 82.91 68.06 71.34 69.25 68.61 68.74 58.57 67.38 55.68 67.89 53.3 64.32 42.74 64.32 24.02 69.25 15 65.85 1.55 67.21 0.7"/><polyline class="cls-6" points="71.3 7.85 79.47 18.57 80.66 41.55 84.57 49.55 85.25 65.11 82.53 73.21 82.7 96.19 78.28 112.7 73.65 122.4 70.68 123.48"/><polygon class="cls-7" points="67.73 55.66 76.33 55.14 76.91 58.23 75.04 58.23 74.66 68.66 76.91 69.47 76.16 71.87 68.24 70.94 69.55 66.91 69 58.95 67.73 55.66"/><path class="cls-1" d="M83.9,84.32c-6,3.1-12.76.65-14.88-4.09-2-4.49.64-10,4.68-12.5A11.66,11.66,0,0,1,88,69.85"/></g></g></g></svg>