<svg xmlns="http://www.w3.org/2000/svg" viewBox="0 0 91.51 109.16"><defs><style>.cls-1{fill:#f9c8b9;}.cls-1,.cls-5{stroke:#1d1e1c;}.cls-1,.cls-3,.cls-5,.cls-6,.cls-7,.cls-8{stroke-miterlimit:10;}.cls-2{fill:#f08bb5;}.cls-3{fill:#d3f99d;}.cls-3,.cls-6,.cls-7,.cls-8{stroke:#1d1d1b;}.cls-4{fill:#3c3c3b;}.cls-5,.cls-8{fill:none;}.cls-6{fill:#e5b270;}.cls-7{fill:#b8723a;}</style></defs><g id="Calque_2" data-name="Calque 2"><g id="Calque_15" data-name="Calque 15"><g id="Calque_4" data-name="Calque 4"><path class="cls-1" d="M64.45,21.8a42,42,0,0,0-17-4.46,23.71,23.71,0,0,0-8.16,1c-7.81,2.31-24,9-33.06,26.54A52.25,52.25,0,0,0,.58,71.55,24,24,0,0,0,14,91.93a69.94,69.94,0,0,0,12.77,4.73h0a10.84,10.84,0,0,0,7.67,11.91A8.45,8.45,0,0,0,44,98.89c1.85,0,3.65-.08,5.41-.23l-1.11.24a9.84,9.84,0,0,0,4.13,7.79A9.38,9.38,0,0,0,59,108.05a9.64,9.64,0,0,0,5.28-2.93c3.64-4,2-9.68,1.87-10h0a72.31,72.31,0,0,0,13.27-6.23,23.81,23.81,0,0,0,11.5-22.8C88.75,46.05,79.24,29.38,64.45,21.8Z"/><ellipse class="cls-2" cx="6.87" cy="82.03" rx="0.53" ry="1.28" transform="translate(-34.36 10.78) rotate(-25.27)"/><ellipse class="cls-2" cx="8.36" cy="81.31" rx="1.28" ry="0.53" transform="translate(-71.9 65.8) rotate(-73.19)"/><ellipse class="cls-2" cx="8.97" cy="82.97" rx="1.28" ry="0.53" transform="translate(-28.25 8.28) rotate(-20.32)"/><path class="cls-3" d="M63.22,81.1c0-2.32,2.17-4.21,4.85-4.21V68.15H20.16v8.74c2.68,0,4.85,1.91,4.85,4.21s-2.17,4.22-4.85,4.22v9.06a65.91,65.91,0,0,0,47.91,0V85.32C65.39,85.32,63.22,83.43,63.22,81.1Z"/><circle class="cls-2" cx="27.67" cy="48.03" r="4.17"/><circle class="cls-4" cx="33.18" cy="45.34" r="4.17"/><path class="cls-5" d="M40,49.64a5.08,5.08,0,0,0,3.9,2.55,4.77,4.77,0,0,0,4.35-2.39"/><circle class="cls-2" cx="59.47" cy="48.03" r="4.17"/><circle class="cls-4" cx="53.96" cy="45.34" r="4.17"/><ellipse class="cls-2" cx="84.89" cy="81.48" rx="1.28" ry="0.53" transform="translate(-25.04 123.47) rotate(-64.73)"/><ellipse class="cls-2" cx="83.39" cy="80.79" rx="0.53" ry="1.28" transform="translate(-19.8 27.57) rotate(-16.81)"/><ellipse class="cls-2" cx="82.79" cy="82.44" rx="0.53" ry="1.28" transform="translate(-23.28 131.45) rotate(-69.68)"/><path class="cls-1" d="M18.37,77c3.72,0,6.74,1.9,6.74,4.25s-3,4.25-6.74,4.25"/><path class="cls-1" d="M69.34,77c-3.72,0-6.74,1.9-6.74,4.25s3,4.25,6.74,4.25"/></g><path class="cls-6" d="M20.76,21.84,5.25,29.52a.64.64,0,0,0,.37,1.21,150.9,150.9,0,0,1,80,10.38.74.74,0,0,0,.81-1.2l-8.28-8.54a27.06,27.06,0,0,0-5.28-18.72A26.52,26.52,0,0,0,60.42,3.79a16.62,16.62,0,0,0-17.7-1.36,48.14,48.14,0,0,0-22,19.41Z"/><ellipse class="cls-7" cx="62.84" cy="19.01" rx="3.32" ry="1.62" transform="translate(33.94 77.96) rotate(-80.71)"/><polygon class="cls-7" points="20.76 21.84 78.12 31.37 77.64 23.21 27.47 13.06 20.76 21.84"/><path class="cls-8" d="M60.42,3.79A17.31,17.31,0,0,0,48.76,7.7a17,17,0,0,0-5.43,8.57"/></g></g></svg>