<svg xmlns="http://www.w3.org/2000/svg" viewBox="0 0 135.93 127.42"><defs><style>.cls-1,.cls-6{fill:#d3f99d;}.cls-1,.cls-3,.cls-4,.cls-5{stroke:#1d1d1b;}.cls-1,.cls-2,.cls-3,.cls-4,.cls-5{stroke-miterlimit:10;}.cls-2{fill:#f9c8b9;stroke:#1d1e1c;}.cls-3{fill:#211e1e;}.cls-4{fill:#a09e9e;stroke-width:3px;}.cls-5,.cls-7{fill:#063;}</style></defs><g id="Calque_2" data-name="Calque 2"><g id="Calque_19" data-name="Calque 19"><path class="cls-1" d="M20.45,61.1l-19-22.05a4,4,0,0,1,3.4-6.55l13.82,1.32a6.75,6.75,0,0,0,7.42-6.65c0-7.53-2.49-17.28.12-19,3.83-2.46,19.07,7.16,22.32,9.33a1.11,1.11,0,0,0,1.37-.11L66.27,2a5.69,5.69,0,0,1,8.31.56l13,16a1.29,1.29,0,0,0,1.61.33l15.44-8.09a4.43,4.43,0,0,1,6.47,4.34L109.4,33.1a1.28,1.28,0,0,0,1.14,1.4L130,36.72A6.06,6.06,0,0,1,134.48,46l-17.9,28.24a1.31,1.31,0,0,1-1.28.59l-94-13.28A1.26,1.26,0,0,1,20.45,61.1Z"/><g id="Calque_1-2" data-name="Calque 1-2"><path class="cls-2" d="M108.81,51.35c-3.09-6-6.6-12.7-14-18.81-3.5-2.9-9.36-7.63-18.27-9.14s-15.84,1-20.42,2.69C44.68,30.33,37.81,37.62,33.58,42.21,26.69,49.67,13.45,64,15.28,83.06c.37,3.82,1.09,11.32,6.45,17.74,4.09,4.9,9.69,7.49,18.17,9.42a6.62,6.62,0,0,1-3.66-6.55L39.2,72c.34-3.64,3.76-8.65,7.4-8.31L92,68.41c5.26,1.64,2.1,5.09,1.76,8.73l-3,31.63c.75,3.2.39,5-.6,5.94,6.33-.73,12.49-2.44,17.58-6.93,7.55-6.66,9-16.13,9.67-21,2.15-14.49-3.73-26-8.6-35.47Z"/><path class="cls-1" d="M42.07,110.87a6.67,6.67,0,0,1-1.63-.36c0,.33.06.67.1,1a15.58,15.58,0,0,0,.54,3,13.23,13.23,0,0,0,2,4.3A12.36,12.36,0,0,0,47,122.3c1.56.88,3.77,2.12,6.32,1.48,3.16-.8,4.64-4,5.11-5a11.28,11.28,0,0,0,.94-3.63,14.23,14.23,0,0,0,0-1.7l3.72.51,1.67.23a4.91,4.91,0,0,0,0,.55c0,1.54.66,2.72,1.75,4.57A16.65,16.65,0,0,0,69.19,123c1.55,1.54,4.41,4.38,8.06,3.9a8.45,8.45,0,0,0,5.51-3.76c.74-1.19,1.08-2.54,1.75-5.24a8.65,8.65,0,0,0,.4-2.15,3.43,3.43,0,0,0,0-.56c-.48-.12-1-.26-1.42-.42L42.1,110.87Z"/><path class="cls-3" d="M39.9,110.22a5.79,5.79,0,0,0,.68.29.66.66,0,0,0,0-.14Z"/><path class="cls-1" d="M90.75,108.77l3-31.63c.34-3.64,3.5-7.09-1.76-8.73L46.6,63.73C43,63.39,39.54,68.4,39.2,72l-3,31.63a6.62,6.62,0,0,0,3.66,6.55l.67.15a.66.66,0,0,0,0,.14,6.23,6.23,0,0,0,1.63.36l41.34,3.87c.47.15,1,.29,1.42.42v0c1.73-.09,3.47-.21,5.19-.41,1-.93,1.35-2.74.6-5.94Z"/><circle class="cls-3" cx="55.06" cy="44.43" r="3.22"/><path class="cls-4" d="M48.06,37.34l14.61,7.12"/><circle class="cls-3" cx="82.7" cy="46.72" r="3.22"/><path class="cls-4" d="M90.86,41,75.21,45.38"/><path class="cls-2" d="M32.68,72.25c6.19-2.63,12.77.35,14.51,5.24,1.65,4.64-1.42,9.92-5.64,12.09a11.67,11.67,0,0,1-14.11-3.22"/><path class="cls-2" d="M98.51,96.62c-6,3.1-12.76.65-14.88-4.09-2-4.49.64-10,4.68-12.5a11.66,11.66,0,0,1,14.32,2.12"/></g><path class="cls-5" d="M112.92,101.4a25,25,0,0,1-3.85,5.1,24.67,24.67,0,0,1-5.1,4c1.91,1.83,5.13,5.72,10.5,6.49,6,.85,9.7,1.72,9.7,1.72Z"/><path class="cls-5" d="M25.78,22.44,29,46.36,48.2,29.46l-19.78-9A1.88,1.88,0,0,0,25.78,22.44Z"/><path class="cls-5" d="M113.62,25.05,89.76,28.88a51.1,51.1,0,0,1,17.41,18.77l8.46-20A1.86,1.86,0,0,0,113.62,25.05Z"/><ellipse class="cls-6" cx="34.49" cy="27.07" rx="2.43" ry="3.4" transform="translate(-4.14 47.8) rotate(-66.36)"/><ellipse class="cls-6" cx="31.69" cy="35.32" rx="2.68" ry="3.93" transform="translate(-15.67 38.36) rotate(-51.77)"/><ellipse class="cls-6" cx="100.24" cy="31.03" rx="3.4" ry="2.43" transform="translate(25.83 105.02) rotate(-62.04)"/><ellipse class="cls-6" cx="108.79" cy="33.69" rx="3.93" ry="2.68" transform="translate(10.4 91.04) rotate(-47.45)"/><ellipse class="cls-7" cx="55.84" cy="102.23" rx="3.93" ry="2.68" transform="translate(-57.23 74.23) rotate(-47.45)"/><ellipse class="cls-7" cx="52.82" cy="102.23" rx="2.68" ry="3.93" transform="translate(-56.82 67.29) rotate(-45)"/><ellipse class="cls-7" cx="44.75" cy="102.68" rx="3.93" ry="2.68" transform="translate(-61.15 66.21) rotate(-47.45)"/><ellipse class="cls-7" cx="41.73" cy="102.68" rx="2.68" ry="3.93" transform="translate(-60.38 59.58) rotate(-45)"/><ellipse class="cls-7" cx="49.69" cy="93.58" rx="3.93" ry="2.68" transform="translate(-52.85 66.9) rotate(-47.45)"/><ellipse class="cls-7" cx="46.67" cy="93.58" rx="2.68" ry="3.93" transform="translate(-52.5 60.41) rotate(-45)"/></g></g></svg>