<svg xmlns="http://www.w3.org/2000/svg" viewBox="0 0 91.51 105.14"><defs><style>.cls-1{fill:#f9c8b9;}.cls-1,.cls-5{stroke:#1d1e1c;}.cls-1,.cls-3,.cls-5,.cls-6,.cls-7{stroke-miterlimit:10;}.cls-2{fill:#f08bb5;}.cls-3{fill:#d3f99d;}.cls-3,.cls-6,.cls-7{stroke:#1d1d1b;}.cls-4{fill:#3c3c3b;}.cls-5{fill:none;}.cls-6,.cls-7{fill:#683b11;}.cls-6{stroke-width:0.25px;}.cls-8{fill:#1d1d1b;}</style></defs><g id="Calque_2" data-name="Calque 2"><g id="Calque_16" data-name="Calque 16"><g id="Calque_1-2" data-name="Calque 1-2"><g id="Calque_2-2" data-name="Calque 2-2"><g id="Calque_4" data-name="Calque 4"><path class="cls-1" d="M64.45,17.78a42,42,0,0,0-17-4.46,23.71,23.71,0,0,0-8.16,1c-7.81,2.31-24,9-33.06,26.54A52.25,52.25,0,0,0,.58,67.53,24,24,0,0,0,14,87.91a69.94,69.94,0,0,0,12.77,4.73h0a10.84,10.84,0,0,0,7.67,11.91A8.45,8.45,0,0,0,44,94.87c1.85,0,3.65-.08,5.41-.23l-1.11.24a9.84,9.84,0,0,0,4.13,7.79A9.38,9.38,0,0,0,59,104a9.64,9.64,0,0,0,5.28-2.93c3.64-4,2-9.68,1.87-10h0a72.31,72.31,0,0,0,13.27-6.23,23.81,23.81,0,0,0,11.5-22.8C88.75,42,79.24,25.36,64.45,17.78Z"/><ellipse class="cls-2" cx="6.87" cy="78.01" rx="0.53" ry="1.28" transform="translate(-32.64 10.4) rotate(-25.27)"/><ellipse class="cls-2" cx="8.36" cy="77.29" rx="1.28" ry="0.53" transform="translate(-68.05 62.94) rotate(-73.19)"/><ellipse class="cls-2" cx="8.97" cy="78.95" rx="1.28" ry="0.53" transform="translate(-26.86 8.03) rotate(-20.32)"/><path class="cls-3" d="M63.22,77.08c0-2.32,2.17-4.21,4.85-4.21V64.13H20.16v8.74c2.68,0,4.85,1.91,4.85,4.21s-2.17,4.22-4.85,4.22v9.06a65.91,65.91,0,0,0,47.91,0V81.3C65.39,81.3,63.22,79.41,63.22,77.08Z"/><circle class="cls-2" cx="27.67" cy="44.01" r="4.17"/><circle class="cls-4" cx="33.18" cy="41.32" r="4.17"/><path class="cls-5" d="M40,45.62a5.08,5.08,0,0,0,3.9,2.55,4.77,4.77,0,0,0,4.35-2.39"/><circle class="cls-2" cx="59.47" cy="44.01" r="4.17"/><circle class="cls-4" cx="53.96" cy="41.32" r="4.17"/><ellipse class="cls-2" cx="84.89" cy="77.46" rx="1.28" ry="0.53" transform="translate(-21.4 121.16) rotate(-64.73)"/><ellipse class="cls-2" cx="83.39" cy="76.77" rx="0.53" ry="1.28" transform="translate(-18.64 27.4) rotate(-16.81)"/><ellipse class="cls-2" cx="82.79" cy="78.42" rx="0.53" ry="1.28" transform="translate(-19.51 128.82) rotate(-69.68)"/><path class="cls-1" d="M18.37,72.94c3.72,0,6.74,1.9,6.74,4.25s-3,4.25-6.74,4.25"/><path class="cls-1" d="M69.34,72.94c-3.72,0-6.74,1.9-6.74,4.25s3,4.25,6.74,4.25"/></g></g></g><rect class="cls-6" x="36.33" y="12.97" width="14.43" height="10.18"/><path class="cls-7" d="M42.71,13V23A83.4,83.4,0,0,1,26.12,34.13a83.4,83.4,0,0,1-24.38,8C12,18.27,20.83,12.85,27.14,12.23,37.61,11.21,42.71,13,42.71,13Z"/><path class="cls-7" d="M45.48,13V23a88,88,0,0,0,16,10.66,88.41,88.41,0,0,0,25,8.49C76.23,18.27,67.37,12.85,61.05,12.23,50.59,11.21,45.48,13,45.48,13Z"/><path class="cls-7" d="M41.64,12.68c.13-.51,2.89-10.51,10.39-12,4.44-.88,8.35,1.65,10.34,2.94C70.52,8.89,73.82,18.9,75.52,18.2c.38-.16.56-.8.71-.73.4.16-.71,3.64-.71,3.64-2.42-2.33-9.51-8.5-20-9.19a30.11,30.11,0,0,0-10,1.05Z"/><polygon class="cls-8" points="29.55 43.4 27.65 47.28 30.37 44.25 29.55 43.4"/><polygon class="cls-8" points="30.8 44.74 30.66 49.06 31.97 45.31 30.8 44.74"/><path class="cls-8" d="M32.24,45.34,33,49.6l.56-4.16a2.72,2.72,0,0,1-.64,0A3.79,3.79,0,0,1,32.24,45.34Z"/><polygon class="cls-8" points="29.54 39.42 26.82 36.06 30.14 38.4 29.54 39.42"/><polygon class="cls-8" points="30.42 38.27 29.83 33.99 31.52 37.58 30.42 38.27"/><path class="cls-8" d="M31.79,37.46l.26-4.32,1,4.09a2.54,2.54,0,0,0-.63.06A2.82,2.82,0,0,0,31.79,37.46Z"/><polygon class="cls-8" points="57.56 39.43 60.28 36.07 56.96 38.41 57.56 39.43"/><polygon class="cls-8" points="56.68 38.28 57.28 34 55.58 37.58 56.68 38.28"/><path class="cls-8" d="M55.32,37.46l-.26-4.31-1,4.08a2.57,2.57,0,0,1,.63.07A4.06,4.06,0,0,1,55.32,37.46Z"/><polygon class="cls-8" points="57.57 43.31 59.47 47.2 56.76 44.17 57.57 43.31"/><polygon class="cls-8" points="56.32 44.65 56.46 48.97 55.16 45.23 56.32 44.65"/><path class="cls-8" d="M54.89,45.25l-.71,4.27-.56-4.17a2.63,2.63,0,0,0,.63,0A3.07,3.07,0,0,0,54.89,45.25Z"/></g></g></svg>