<?xml version="1.0" encoding="UTF-8"?>
<svg id="Calque_2" data-name="Calque 2" xmlns="http://www.w3.org/2000/svg" viewBox="0 0 91.51 92.35">
  <defs>
    <style>
      .cls-1 {
        fill: none;
      }

      .cls-1, .cls-2 {
        stroke: #1d1e1c;
      }

      .cls-1, .cls-2, .cls-3 {
        stroke-miterlimit: 10;
      }

      .cls-4 {
        fill: #3c3c3b;
      }

      .cls-4, .cls-5 {
        stroke-width: 0px;
      }

      .cls-2 {
        fill: #f9c8b9;
      }

      .cls-3 {
        fill: #d3f99d;
        stroke: #1d1d1b;
      }

      .cls-5 {
        fill: #f08bb5;
      }
    </style>
  </defs>
  <g id="Calque_1-2" data-name="Calque 1">
    <g id="Calque_2-2" data-name="Calque 2">
      <g id="Calque_4" data-name="Calque 4">
        <path class="cls-2" d="m64.45,4.99c-5.29-2.67-11.08-4.19-17-4.46-2.76-.14-5.52.19-8.16,1C31.48,3.84,15.29,10.53,6.23,28.07,2.02,36.3.07,45.51.58,54.74c.43,8.73,5.58,16.54,13.43,20.38,4.09,1.99,8.37,3.57,12.77,4.73h0c-.75,5.32,2.51,10.39,7.67,11.91,4.62.66,8.91-2.55,9.58-7.17.12-.83.11-1.68-.02-2.51,1.85,0,3.65-.08,5.41-.23l-1.11.24c.07,3.1,1.6,5.99,4.13,7.79,1.94,1.24,4.26,1.72,6.53,1.36,2.03-.39,3.88-1.41,5.28-2.93,3.64-4,2-9.68,1.87-10h0c4.62-1.62,9.07-3.71,13.27-6.23,7.93-4.73,12.41-13.61,11.5-22.8-2.14-20.04-11.65-36.71-26.44-44.29Z"/>
        <ellipse class="cls-5" cx="6.87" cy="65.22" rx=".53" ry="1.28" transform="translate(-27.18 9.17) rotate(-25.27)"/>
        <ellipse class="cls-5" cx="8.36" cy="64.51" rx="1.28" ry=".53" transform="translate(-55.81 53.85) rotate(-73.19)"/>
        <ellipse class="cls-5" cx="8.97" cy="66.16" rx="1.28" ry=".53" transform="translate(-22.42 7.23) rotate(-20.32)"/>
        <path class="cls-3" d="m63.22,64.29c0-2.32,2.17-4.21,4.85-4.21v-8.74H20.16v8.74c2.68,0,4.85,1.91,4.85,4.21s-2.17,4.22-4.85,4.22v9.06c15.4,6.01,32.51,6.01,47.91,0v-9.06c-2.68,0-4.85-1.89-4.85-4.22Z"/>
        <circle class="cls-5" cx="27.67" cy="31.22" r="4.17"/>
        <circle class="cls-4" cx="33.18" cy="28.53" r="4.17"/>
        <path class="cls-1" d="m40.01,32.83c.81,1.43,2.26,2.38,3.9,2.55,1.78.08,3.46-.84,4.35-2.39"/>
        <circle class="cls-5" cx="59.47" cy="31.22" r="4.17"/>
        <circle class="cls-4" cx="53.96" cy="28.53" r="4.17"/>
        <ellipse class="cls-5" cx="84.89" cy="64.68" rx="1.28" ry=".53" transform="translate(-9.84 113.83) rotate(-64.73)"/>
        <ellipse class="cls-5" cx="83.39" cy="63.98" rx=".53" ry="1.28" transform="translate(-14.94 26.85) rotate(-16.81)"/>
        <ellipse class="cls-5" cx="82.79" cy="65.63" rx=".53" ry="1.28" transform="translate(-7.51 120.48) rotate(-69.68)"/>
        <path class="cls-2" d="m18.37,60.15c3.72,0,6.74,1.9,6.74,4.25s-3,4.25-6.74,4.25"/>
        <path class="cls-2" d="m69.34,60.15c-3.72,0-6.74,1.9-6.74,4.25s3,4.25,6.74,4.25"/>
      </g>
    </g>
  </g>
</svg>