<svg xmlns="http://www.w3.org/2000/svg" viewBox="0 0 91.96 92.35"><defs><style>.cls-1{fill:#f9c8b9;}.cls-1,.cls-5{stroke:#1d1e1c;}.cls-1,.cls-3,.cls-5,.cls-6{stroke-miterlimit:10;}.cls-2{fill:#f08bb5;}.cls-3{fill:#d3f99d;}.cls-3,.cls-6{stroke:#1d1d1b;}.cls-4{fill:#3c3c3b;}.cls-5{fill:none;}.cls-6{fill:#bd1622;stroke-width:0.25px;}</style></defs><g id="Calque_2" data-name="Calque 2"><g id="Calque_14" data-name="Calque 14"><path class="cls-1" d="M64.45,5a42,42,0,0,0-17-4.46,23.71,23.71,0,0,0-8.16,1c-7.81,2.31-24,9-33.06,26.54A52.25,52.25,0,0,0,.58,54.74,24,24,0,0,0,14,75.12a69.94,69.94,0,0,0,12.77,4.73h0a10.84,10.84,0,0,0,7.67,11.91A8.45,8.45,0,0,0,44,82.08c1.85,0,3.65-.08,5.41-.23l-1.11.24a9.84,9.84,0,0,0,4.13,7.79A9.38,9.38,0,0,0,59,91.24a9.64,9.64,0,0,0,5.28-2.93c3.64-4,2-9.68,1.87-10h0a72.31,72.31,0,0,0,13.27-6.23,23.81,23.81,0,0,0,11.5-22.8C88.75,29.24,79.24,12.57,64.45,5Z"/><ellipse class="cls-2" cx="8.66" cy="66.88" rx="0.53" ry="1.28" transform="translate(-27.72 10.1) rotate(-25.27)"/><ellipse class="cls-2" cx="10.14" cy="66.17" rx="1.28" ry="0.53" transform="translate(-56.13 56.74) rotate(-73.19)"/><ellipse class="cls-2" cx="10.75" cy="67.82" rx="1.28" ry="0.53" transform="translate(-22.88 7.95) rotate(-20.32)"/><path class="cls-3" d="M63.22,64.29c0-2.32,2.17-4.21,4.85-4.21V51.34H20.16v8.74C22.84,60.08,25,62,25,64.29s-2.17,4.22-4.85,4.22v9.06a65.91,65.91,0,0,0,47.91,0V68.51C65.39,68.51,63.22,66.62,63.22,64.29Z"/><circle class="cls-2" cx="27.67" cy="31.22" r="4.17"/><circle class="cls-4" cx="33.18" cy="28.53" r="4.17"/><path class="cls-5" d="M40,32.83a5.08,5.08,0,0,0,3.9,2.55A4.77,4.77,0,0,0,48.26,33"/><circle class="cls-2" cx="59.47" cy="31.22" r="4.17"/><circle class="cls-4" cx="53.96" cy="28.53" r="4.17"/><ellipse class="cls-2" cx="84.89" cy="64.68" rx="1.28" ry="0.53" transform="translate(-9.84 113.83) rotate(-64.73)"/><ellipse class="cls-2" cx="83.39" cy="63.98" rx="0.53" ry="1.28" transform="translate(-14.94 26.85) rotate(-16.81)"/><ellipse class="cls-2" cx="82.79" cy="65.63" rx="0.53" ry="1.28" transform="translate(-7.51 120.48) rotate(-69.68)"/><path class="cls-6" d="M89,40.86c-1.36-1-7.16-10.49-7.16-10.49l-4,.64c-.47.07-2.7-2.31-2.7-2.31H67.17l1,1.19,5.16.56v2.78L64.69,45.82a2.13,2.13,0,0,0-.37,1L62.4,61.43,63,80l1.74,3.73,1.59-1.83,1.59-1.35-.4-.87.32-.92a.8.8,0,0,0-.94-1l-.57.13-.63-7.39,1.11-.55a.58.58,0,0,0,0-1l-1.31-.55.4-4.29,1.69-.83a.4.4,0,0,0-.15-.76l-1.78-.08,2.7-14.78,6.83-10.09A5.15,5.15,0,0,1,80.59,34l11,10.25A10.92,10.92,0,0,0,89,40.86ZM64,59.74c.31,0,.52.61.46,1.31s-.36,1.24-.67,1.21-.51-.61-.46-1.31S63.72,59.71,64,59.74Zm-.66,4a.59.59,0,0,1,.36-.75.59.59,0,0,1,.76.36.59.59,0,1,1-1.12.39ZM65.5,81.05a.71.71,0,0,1-.44.92.72.72,0,0,1-.48-1.36A.71.71,0,0,1,65.5,81.05Zm1.23-33.92c-.35.85-1,1.41-1.36,1.24s-.44-1-.08-1.84,1-1.41,1.36-1.25S67.09,46.28,66.73,47.13Zm9.61-14.3c-.57.2-1.12.12-1.23-.19s.27-.73.84-.93,1.12-.11,1.23.2S76.91,32.63,76.34,32.83Zm4.93-.46a.59.59,0,0,1-.4-1.12.61.61,0,0,1,.76.37A.58.58,0,0,1,81.27,32.37Z"/><path class="cls-1" d="M69.34,60.15c-3.72,0-6.74,1.9-6.74,4.25s3,4.25,6.74,4.25"/></g></g></svg>