<svg xmlns="http://www.w3.org/2000/svg" viewBox="0 0 166.7 160"><defs><style>.cls-1{fill:#f08bb5;}.cls-1,.cls-2{stroke:#1d1d1b;stroke-miterlimit:10;}.cls-2{fill:none;}</style></defs><g id="Calque_2" data-name="Calque 2"><g id="Calque_11" data-name="Calque 11"><path class="cls-1" d="M58.32,56.69,52.66,28.86a11.36,11.36,0,0,1,.14-5.12,34,34,0,0,1,3.73-8.92A35.62,35.62,0,0,1,73.38.52a13.18,13.18,0,0,1,8.94,2.81,12.7,12.7,0,0,1,3.83,5.36A11.38,11.38,0,0,1,92,4.1C98.73,2,104.79,8.23,105.47,9c3.64,3.85,4.21,8.32,4.93,14a50.76,50.76,0,0,1-1.78,20.68,73.08,73.08,0,0,1-6.13,15.06c.58-1.64,5.11-13.85,18.13-18.38a29.67,29.67,0,0,1,18.77-.08,14.19,14.19,0,0,0,3.35.65,23.18,23.18,0,0,1,19.69,13.49,6.19,6.19,0,0,1,0,5.19l-3.74,8.07,7.15,3.06c1.11,2-.35,9.78-1.53,11.77-3.48,5.84-13.07,16.58-22.22,16.58A46.64,46.64,0,0,1,120.87,94c3.3,2.51,14.33,11.54,16.09,26a26.33,26.33,0,0,1-.9,12.38c-3.8,11-16,18.61-16.72,19.28h0a18.86,18.86,0,0,1-11,7.41,18.28,18.28,0,0,1-9.7-.52,10.91,10.91,0,0,1-11-3.06,10,10,0,0,1-2.3-5.87l2.81-21.7c.84,10.55-2.86,20.22-10,24.76A23.33,23.33,0,0,1,68,156a20.88,20.88,0,0,1-11-2.55L45.55,144s-12.51-4.08-14-2.3-4.85-10-4.85-10-3.32-14.56,18.13-18.64-26.56-7.41-26.56-7.41a19.53,19.53,0,0,1-10-6.89A20.17,20.17,0,0,1,4.45,88.35,21.22,21.22,0,0,1,8.28,74.82L3.43,71.07a7.61,7.61,0,0,1-2.9-6.72c.42-4.41,1.76-11.09,6-14.81,4.49-4,13.08-8.06,18.16-10.29a11.27,11.27,0,0,1,8.14-.35c9.66,3.29,14.72,4.17,18.89,8.09A28.12,28.12,0,0,1,58.32,56.69Z"/><path class="cls-2" d="M90.11,86.05c1.27.41,8.13,3.36,11.45,9.2,3,5.29,2.55,14.63,2.3,16.08"/><ellipse class="cls-2" cx="103.54" cy="115.93" rx="3.54" ry="4.6"/><path class="cls-2" d="M78.34,85.54c-.84.48-5.25,3.55-6.73,8.15-1.35,4.17.33,10.69.72,11.68"/><ellipse class="cls-2" cx="73.22" cy="108.56" rx="2.55" ry="3.31" transform="translate(-20.44 17.05) rotate(-11.66)"/><path class="cls-2" d="M74.72,75.26c-.62-.74-4.41-4.55-9.2-5.21-4.34-.6-10.47,2.19-11.37,2.74"/><ellipse class="cls-2" cx="51.16" cy="74.23" rx="3.31" ry="2.55" transform="translate(-23.82 24.17) rotate(-21.7)"/><path class="cls-2" d="M89.71,73.69c.62-.74,4.41-4.55,9.2-5.21,4.34-.6,10.47,2.19,11.37,2.74"/><ellipse class="cls-2" cx="113.27" cy="72.65" rx="2.55" ry="3.31" transform="translate(3.89 151.04) rotate(-68.3)"/><path class="cls-2" d="M76.58,81.16c-.88-.38-6-2.07-10.56-.5-4.15,1.42-8.36,6.67-8.91,7.57"/><path class="cls-2" d="M91.75,52.72c-.79.56-4.84,4.08-5.83,8.82-.9,4.29,1.47,10.59,2,11.53"/></g></g></svg>