<svg xmlns="http://www.w3.org/2000/svg" viewBox="0 0 103.75 104.99"><defs><style>.cls-1{fill:#f9c8b9;stroke:#1d1e1c;}.cls-1,.cls-2,.cls-3,.cls-4,.cls-5{stroke-miterlimit:10;}.cls-2{fill:#d3f99d;}.cls-2,.cls-3,.cls-4,.cls-5{stroke:#1d1d1b;}.cls-3{fill:#211e1e;}.cls-4{fill:#2e9fcc;}.cls-5{fill:#a09e9e;stroke-width:3px;}</style></defs><g id="Calque_2" data-name="Calque 2"><g id="Calque_12" data-name="Calque 12"><g id="Calque_1-2" data-name="Calque 1-2"><path class="cls-1" d="M94.2,28.91c-3.09-6-6.6-12.7-14-18.81C76.73,7.2,70.87,2.47,62,1S46.12,2,41.54,3.65C30.07,7.89,23.2,15.18,19,19.77,12.08,27.23-1.16,41.6.67,60.62,1,64.44,1.76,71.94,7.12,78.36c4.09,4.9,9.69,7.49,18.17,9.42a6.62,6.62,0,0,1-3.66-6.55l3-31.63C24.93,46,28.35,41,32,41.29L77.34,46c5.26,1.64,2.1,5.09,1.76,8.73l-3,31.63c.75,3.2.39,5-.6,5.94,6.33-.73,12.49-2.44,17.58-6.93,7.55-6.66,9-16.13,9.67-21,2.15-14.49-3.73-26-8.6-35.47Z"/><path class="cls-2" d="M27.46,88.43a6.67,6.67,0,0,1-1.63-.36c0,.33.06.67.1,1a15.58,15.58,0,0,0,.54,3,13.23,13.23,0,0,0,2,4.3,12.36,12.36,0,0,0,3.9,3.49c1.56.88,3.77,2.12,6.32,1.48,3.16-.8,4.64-4,5.11-5a11.28,11.28,0,0,0,.94-3.63,14.23,14.23,0,0,0,0-1.7l3.72.51,1.67.23a4.91,4.91,0,0,0,0,.55c0,1.54.66,2.72,1.75,4.57a16.65,16.65,0,0,0,2.69,3.63c1.55,1.54,4.41,4.38,8.06,3.9a8.45,8.45,0,0,0,5.51-3.76c.74-1.19,1.08-2.54,1.75-5.24a8.65,8.65,0,0,0,.4-2.15,3.43,3.43,0,0,0,0-.56c-.48-.12-1-.26-1.42-.42L27.49,88.43Z"/><path class="cls-3" d="M25.29,87.78a5.79,5.79,0,0,0,.68.29.66.66,0,0,0,0-.14Z"/><path class="cls-2" d="M76.14,86.33l3-31.63c.34-3.64,3.5-7.09-1.76-8.73L32,41.29C28.35,41,24.93,46,24.59,49.6l-3,31.63a6.62,6.62,0,0,0,3.66,6.55l.67.15a.66.66,0,0,0,0,.14,6.23,6.23,0,0,0,1.63.36L68.94,92.3c.47.15,1,.29,1.42.42v0c1.73-.09,3.47-.21,5.19-.41,1-.93,1.35-2.74.6-5.94Z"/><path class="cls-4" d="M36.47,5.85,54,16.67,34.27,40.61,30.7,35l-6.47.85V30.06h-9l-1.09-4.85A71.7,71.7,0,0,1,36.47,5.85Z"/><path class="cls-4" d="M76.25,7,56.07,16,72.13,42.56l4.35-5,6.28,1.78.84-5.73,8.93,1.31,1.78-4.63A36.89,36.89,0,0,0,86.9,16.93C82.56,11.93,79.09,8.37,76.25,7Z"/><circle class="cls-3" cx="40.45" cy="21.99" r="3.22"/><path class="cls-5" d="M33.45,14.9,48.06,22"/><circle class="cls-3" cx="68.09" cy="24.28" r="3.22"/><path class="cls-5" d="M76.25,18.58,60.6,22.94"/><path class="cls-4" d="M32,41.29l10.28,1.2c-.05,6.27-.31,12.92-.85,19.91-.66,8.69-1.68,16.83-2.89,24.34a5.83,5.83,0,0,0-10.93-1c.18-7.59.65-15.75,1.57-24.39C29.92,54.28,30.89,47.57,32,41.29Z"/><path class="cls-4" d="M48.93,43.06l10.28,1.2c-.05,6.28-.31,12.93-.85,19.91-.67,8.7-1.68,16.83-2.89,24.34a5.87,5.87,0,0,0-5.28-4.33,5.81,5.81,0,0,0-5.65,3.36c.17-7.59.65-15.75,1.56-24.39C46.86,56.05,47.82,49.35,48.93,43.06Z"/><path class="cls-4" d="M63.81,44.58l11,1.13c0,6.27-1.24,14-1.78,21-.67,8.7-1.68,16.83-2.89,24.34a5.83,5.83,0,0,0-10.93-1c.17-7.59.65-15.75,1.57-24.39C61.53,58.57,62.71,50.86,63.81,44.58Z"/><path class="cls-1" d="M18.07,49.81c6.19-2.63,12.77.35,14.51,5.24,1.65,4.64-1.42,9.92-5.64,12.09a11.67,11.67,0,0,1-14.11-3.22"/><path class="cls-1" d="M83.9,74.18c-6,3.1-12.76.65-14.88-4.09-2-4.49.64-10,4.68-12.5A11.66,11.66,0,0,1,88,59.71"/></g></g></g></svg>